<svg width="154" height="60" viewBox="0 0 154 60" fill="none" xmlns="http://www.w3.org/2000/svg">
<path d="M0 0.880249H8.16786V43.5619H0V0.880249ZM47.9631 43.48H33.4493L20.6551 5.5476V43.48H12.6714V0.818833H27.1853L39.9591 38.8127V0.818833H47.9631V43.48ZM82.7635 37.8915C82.3132 38.7103 81.7195 39.5087 80.9826 40.2866C80.2456 41.0645 79.3244 41.7605 78.219 42.3746C77.1136 42.9887 75.783 43.48 74.2477 43.8485C72.7124 44.217 70.9314 44.4012 68.9253 44.4012C66.7144 44.4012 64.7697 44.176 63.0911 43.7257C61.4125 43.2753 59.9591 42.6817 58.7308 41.9652C57.5026 41.2487 56.479 40.4094 55.6602 39.4678C54.8414 38.5261 54.1863 37.564 53.695 36.5814C52.5077 34.3296 51.8935 31.7298 51.8526 28.782V26.9396H59.9181V28.4135C59.9181 30.5834 60.348 32.2416 61.1873 33.3879C62.0266 34.5343 62.9887 35.3736 64.0532 35.8854C65.1177 36.3971 66.1412 36.6837 67.1238 36.7451C68.1064 36.8066 68.7615 36.8475 69.089 36.8475C69.3756 36.8475 69.9283 36.827 70.7267 36.7451C71.5251 36.6837 72.3439 36.479 73.1627 36.131C73.9816 35.783 74.7185 35.2508 75.3531 34.5343C75.9877 33.8178 76.3152 32.7943 76.3152 31.4841C76.3152 30.174 75.8854 29.13 75.0256 28.3521C74.1658 27.5742 73.2242 26.9601 72.2006 26.5097C71.0133 26.0184 69.6622 25.6499 68.1474 25.4043C66.1412 25.1177 64.4012 24.7083 62.9273 24.1965C61.4534 23.6847 60.1638 23.0911 59.0788 22.436C57.9938 21.781 57.0931 21.0849 56.3971 20.348C55.7011 19.611 55.1484 18.8741 54.739 18.1372C53.7155 16.4176 53.2651 14.5548 53.3879 12.5486C53.4289 10.2149 53.9816 8.12692 55.0461 6.28455C55.4964 5.50665 56.0696 4.72876 56.7656 3.97134C57.4616 3.21392 58.3419 2.53838 59.3859 1.9652C60.4299 1.39202 61.6786 0.92119 63.1116 0.552715C64.5445 0.18424 66.2231 0 68.1474 0C70.1535 0 71.914 0.204707 73.4084 0.593653C74.9027 0.982598 76.2129 1.49437 77.3183 2.1085C78.4237 2.72262 79.3449 3.41863 80.0819 4.19652C80.8188 4.97441 81.433 5.77278 81.9242 6.59161C83.0297 8.55681 83.6438 10.7472 83.7666 13.1627V15.3736H75.7011C75.7421 13.9406 75.5373 12.651 75.087 11.5046C74.8823 11.0133 74.5957 10.522 74.2477 10.0512C73.8997 9.58035 73.4493 9.15046 72.8966 8.78198C72.3439 8.41351 71.6684 8.10645 70.8905 7.88127C70.1126 7.65609 69.1914 7.53327 68.1269 7.53327C66.4074 7.53327 65.0972 7.77891 64.1965 8.27021C63.2958 8.76151 62.6407 9.29376 62.2313 9.86694C61.781 10.5629 61.5558 11.3204 61.5558 12.1392C61.5148 12.999 61.8219 13.7973 62.477 14.5343C63.0092 15.1894 63.9099 15.8444 65.1586 16.4995C66.4074 17.1546 68.2702 17.6663 70.7267 18.0348C73.347 18.4442 75.5373 19.0379 77.2978 19.8158C79.0583 20.5937 80.4708 21.5353 81.5353 22.6407C82.5998 23.7462 83.3572 25.0358 83.8076 26.4892C84.2579 27.9427 84.4831 29.5599 84.4831 31.3204C84.3807 33.7973 83.828 35.9672 82.7635 37.8915ZM117.748 0.880249V8.49539H106.244V43.5414H98.0553V8.49539H86.6735V0.880249H117.748ZM142.661 35.0665H126.059L123.664 43.5619H115.169L127.84 0.880249H140.942L153.552 43.5619H145.056L142.661 35.0665ZM134.35 5.609L128.147 27.6151H140.573L134.35 5.609Z" fill="url(#paint0_linear_75_442)"/>
<path d="M8.49539 59.7542H0V47.4717H8.33163V49.6007H2.35415V52.6099H6.79632V54.7388H2.35415V57.6457H8.49539V59.7542Z" fill="#191919"/>
<path d="M20.5324 59.7342H16.3564L12.6716 48.8232V59.7342H10.3789V47.4517H14.5549L18.2397 58.3831V47.4517H20.5324V59.7342Z" fill="#191919"/>
<path d="M31.9754 59.7542H29.6417V58.7716C29.5803 59.0172 29.4575 59.2219 29.2732 59.3857C29.1095 59.5495 28.8638 59.6928 28.5568 59.8156C28.2497 59.9384 27.8198 59.9998 27.2466 59.9998C26.612 59.9998 26.0798 59.9384 25.609 59.7951C25.1381 59.6518 24.7287 59.4676 24.4012 59.2219C24.0736 58.9763 23.7871 58.7306 23.5619 58.4236C23.3367 58.137 23.1525 57.8299 23.0092 57.5024C22.6816 56.7654 22.5383 55.9466 22.5383 55.0049V52.2005C22.5383 51.2588 22.7021 50.44 23.0092 49.703C23.1525 49.3959 23.3367 49.0889 23.5619 48.7818C23.7871 48.4748 24.0736 48.2086 24.4012 47.9835C24.7287 47.7378 25.1381 47.5536 25.609 47.4103C26.0798 47.267 26.6325 47.2056 27.2466 47.2056C27.8403 47.2056 28.3725 47.267 28.8434 47.3898C29.2937 47.5126 29.7031 47.6764 30.0307 47.8811C30.3582 48.0858 30.6448 48.3315 30.8904 48.5976C31.1156 48.8637 31.2998 49.1298 31.4431 49.3959C31.7707 50.051 31.9549 50.7675 31.9754 51.5659H29.6622C29.6417 51.1564 29.5394 50.8084 29.3756 50.5014C29.3142 50.3785 29.2118 50.2353 29.089 50.1124C28.9662 49.9896 28.8229 49.8668 28.6591 49.7644C28.4953 49.6621 28.2906 49.5802 28.0655 49.5188C27.8403 49.4574 27.5537 49.4164 27.2466 49.4164C26.9191 49.4164 26.653 49.4574 26.4073 49.5392C26.1617 49.6211 25.957 49.7235 25.7727 49.8463C25.5885 49.9691 25.4452 50.1124 25.3428 50.2762C25.2405 50.44 25.1381 50.6037 25.0767 50.7675C24.913 51.1564 24.8311 51.6068 24.8515 52.1186V55.0459C24.8311 55.5577 24.913 56.008 25.0767 56.397C25.1381 56.5607 25.2405 56.7245 25.3428 56.8883C25.4452 57.052 25.609 57.1953 25.7727 57.3182C25.957 57.441 26.1617 57.5433 26.4073 57.6252C26.653 57.7071 26.9396 57.748 27.2466 57.748C27.697 57.748 28.0859 57.6866 28.3725 57.5638C28.6591 57.441 28.9048 57.2772 29.089 57.093C29.2732 56.9087 29.3961 56.7245 29.4779 56.4993C29.5598 56.2946 29.6008 56.1104 29.6212 55.9671H27.4718V53.8176H31.9754V55.5986V55.7419V59.7542Z" fill="#191919"/>
<path d="M41.7196 57.3182H36.9499L36.2539 59.7542H33.8179L37.4617 47.4717H41.2283L44.8516 59.7542H42.4156L41.7196 57.3182ZM39.3245 48.8432L37.5436 55.1687H41.126L39.3245 48.8432Z" fill="#191919"/>
<path d="M55.0459 59.7542H52.7123V58.7716C52.6509 59.0172 52.528 59.2219 52.3438 59.3857C52.18 59.5495 51.9344 59.6928 51.6273 59.8156C51.3203 59.9384 50.8904 59.9998 50.3172 59.9998C49.6826 59.9998 49.1503 59.9384 48.6795 59.7951C48.2087 59.6518 47.7993 59.4676 47.4717 59.2219C47.1442 58.9763 46.8576 58.7306 46.6324 58.4236C46.4072 58.137 46.223 57.8299 46.0797 57.5024C45.7522 56.7654 45.6089 55.9466 45.6089 55.0049V52.2005C45.6089 51.2588 45.7727 50.44 46.0797 49.703C46.223 49.3959 46.4072 49.0889 46.6324 48.7818C46.8576 48.4748 47.1442 48.2086 47.4717 47.9835C47.7993 47.7378 48.2087 47.5536 48.6795 47.4103C49.1503 47.267 49.7031 47.2056 50.3172 47.2056C50.9108 47.2056 51.4431 47.267 51.9139 47.3898C52.3643 47.5126 52.7737 47.6764 53.1012 47.8811C53.4288 48.0858 53.7153 48.3315 53.961 48.5976C54.1862 48.8637 54.3704 49.1298 54.5137 49.3959C54.8412 50.051 55.0255 50.7675 55.0459 51.5659H52.7327C52.7123 51.1564 52.6099 50.8084 52.4461 50.5014C52.3847 50.3785 52.2824 50.2353 52.1596 50.1124C52.0367 49.9896 51.8934 49.8668 51.7297 49.7644C51.5659 49.6621 51.3612 49.5802 51.136 49.5188C50.9108 49.4574 50.6242 49.4164 50.3172 49.4164C49.9896 49.4164 49.7235 49.4574 49.4779 49.5392C49.2322 49.6211 49.0275 49.7235 48.8433 49.8463C48.659 49.9691 48.5157 50.1124 48.4134 50.2762C48.311 50.44 48.2087 50.6037 48.1473 50.7675C47.9835 51.1564 47.9016 51.6068 47.9221 52.1186V55.0459C47.9016 55.5577 47.9835 56.008 48.1473 56.397C48.2087 56.5607 48.311 56.7245 48.4134 56.8883C48.5157 57.052 48.6795 57.1953 48.8433 57.3182C49.0275 57.441 49.2322 57.5433 49.4779 57.6252C49.7235 57.7071 50.0101 57.748 50.3172 57.748C50.7675 57.748 51.1565 57.6866 51.4431 57.5638C51.7297 57.441 51.9753 57.2772 52.1596 57.093C52.3438 56.9087 52.4666 56.7245 52.5485 56.4993C52.6304 56.2946 52.6713 56.1104 52.6918 55.9671H50.5424V53.8176H55.0459V55.5986V55.7419V59.7542Z" fill="#191919"/>
<path d="M65.691 59.7542H57.1956V47.4717H65.5272V49.6007H59.5497V52.6099H63.9919V54.7388H59.5497V57.6457H65.691V59.7542Z" fill="#191919"/>
<path d="M67.5537 59.7542V47.4717H71.7502L73.6131 56.6631L75.4554 47.4717H79.6315V59.7542H77.3388V48.8432L75.046 59.7542H72.1596L69.8464 48.8432V59.7542H67.5537Z" fill="#191919"/>
<path d="M90.1944 59.7542H81.699V47.4717H90.0306V49.6007H84.0531V52.6099H88.4953V54.7388H84.0531V57.6457H90.1944V59.7542Z" fill="#191919"/>
<path d="M102.252 59.7342H98.0756L94.3909 48.8232V59.7342H92.0981V47.4517H96.2742L99.9589 58.3831V47.4517H102.252V59.7342Z" fill="#191919"/>
<path d="M113.101 47.4717V49.6621H109.785V59.7542H107.431V49.6621H104.156V47.4717H113.101Z" fill="#191919"/>
<path d="M128.68 57.3182H123.91L123.214 59.7542H120.778L124.422 47.4717H128.188L131.812 59.7542H129.376L128.68 57.3182ZM126.284 48.8432L124.504 55.1687H128.086L126.284 48.8432Z" fill="#191919"/>
<path d="M140.614 47.943C140.86 48.0658 141.105 48.2091 141.351 48.3933C141.597 48.5776 141.822 48.8232 142.006 49.1098C142.19 49.3964 142.354 49.7239 142.456 50.1129C142.579 50.5018 142.641 50.9317 142.641 51.4435C142.641 51.9552 142.579 52.4056 142.456 52.7741C142.333 53.163 142.19 53.4906 142.006 53.7567C141.822 54.0228 141.617 54.2684 141.371 54.4527C141.126 54.6369 140.88 54.8007 140.634 54.903C140.041 55.1896 139.386 55.3329 138.628 55.3534H135.742V59.7342H133.408V47.4517H138.567C139.365 47.4926 140.041 47.6564 140.614 47.943ZM139.447 53.0607C139.652 52.9583 139.857 52.7741 140.041 52.5284C140.225 52.2828 140.307 51.9143 140.307 51.4435C140.307 50.9726 140.225 50.6042 140.041 50.3585C139.857 50.1129 139.652 49.9286 139.447 49.8263C139.181 49.7034 138.894 49.642 138.587 49.642H135.783V53.2244H138.587C138.915 53.2449 139.201 53.1835 139.447 53.0607Z" fill="#191919"/>
<path d="M151.505 47.943C151.75 48.0658 151.996 48.2091 152.242 48.3933C152.487 48.5776 152.712 48.8232 152.897 49.1098C153.081 49.3964 153.245 49.7239 153.347 50.1129C153.47 50.5018 153.531 50.9317 153.531 51.4435C153.531 51.9552 153.47 52.4056 153.347 52.7741C153.224 53.163 153.081 53.4906 152.897 53.7567C152.712 54.0228 152.508 54.2684 152.262 54.4527C152.016 54.6369 151.771 54.8007 151.525 54.903C150.931 55.1896 150.276 55.3329 149.519 55.3534H146.633V59.7342H144.319V47.4517H149.478C150.235 47.4926 150.911 47.6564 151.505 47.943ZM150.338 53.0607C150.542 52.9583 150.747 52.7741 150.931 52.5284C151.116 52.2828 151.198 51.9143 151.198 51.4435C151.198 50.9726 151.116 50.6042 150.931 50.3585C150.747 50.1129 150.542 49.9286 150.338 49.8263C150.072 49.7034 149.785 49.642 149.478 49.642H146.673V53.2244H149.478C149.785 53.2449 150.072 53.1835 150.338 53.0607Z" fill="#191919"/>
<defs>
<linearGradient id="paint0_linear_75_442" x1="-15.7962" y1="-11.6752" x2="183.18" y2="66.4941" gradientUnits="userSpaceOnUse">
<stop stop-color="#FFE500"/>
<stop offset="0.1297" stop-color="#FF9923"/>
<stop offset="0.2453" stop-color="#FF5E3E"/>
<stop offset="0.3429" stop-color="#FF3252"/>
<stop offset="0.4188" stop-color="#FF185E"/>
<stop offset="0.4636" stop-color="#FF0E63"/>
<stop offset="0.6899" stop-color="#8907AC"/>
<stop offset="1" stop-color="#0700FB"/>
</linearGradient>
</defs>
</svg>
